<svg width="347" height="32" viewBox="0 0 347 32" fill="none" xmlns="http://www.w3.org/2000/svg">
<path d="M52.032 15.1367C51.8149 14.9196 51.5254 15.0643 51.5254 15.3538V17.5975H39.0059C38.427 17.5975 37.848 17.8146 37.3415 18.1765L32.2758 22.1571C31.9863 22.3742 31.5521 22.3018 31.4074 21.9399L21.3483 0.661803C20.9865 -0.0619426 20.1181 -0.206692 19.5392 0.29993L5.06576 12.6036C4.63156 12.9655 4.26972 13.5445 4.12499 14.1235L0.651367 26.8614H6.80257L9.26305 17.5975C9.40778 17.0185 9.76962 16.5118 10.2038 16.0776L18.0195 9.41913C18.3089 9.20201 18.7431 9.27438 18.9602 9.63625L28.8745 30.6973C29.164 31.3486 30.1048 31.5658 30.6837 31.1315L39.4401 24.2559C39.8743 23.894 40.4532 23.6769 41.1046 23.6769H51.5254V25.9205C51.5254 26.21 51.8872 26.2824 52.032 26.1377L57.17 20.6372L52.032 15.1367Z" fill="#8DAF00"/>
<path d="M44.6505 5.149C44.4334 4.93187 44.1439 5.07662 44.1439 5.29375V7.24786C44.1439 7.39261 43.9992 7.53736 43.8544 7.53736H39.5848C38.7164 7.53736 37.848 7.32023 37.1243 6.95836L30.0323 3.62913C29.4534 3.33963 28.8021 3.48438 28.3679 3.91863L17.947 14.7024C17.5128 15.1367 16.9339 15.4262 16.2826 15.5709L6.73014 17.0908C5.86173 17.2356 5.06569 17.7422 4.63149 18.5383L0 26.8614H6.87487L8.46695 24.0388C8.90115 23.2426 9.69719 22.736 10.5656 22.5913L19.2496 21.2162C19.9009 21.1438 20.4799 20.7819 20.9141 20.3477L29.96 11.0113C30.2494 10.7218 30.6113 10.6495 30.9731 10.7942L35.7493 13.0378C36.5454 13.3997 37.4138 13.6168 38.2098 13.6168H43.8544C43.9992 13.6168 44.1439 13.7616 44.1439 13.9063V15.8604C44.1439 16.1499 44.5057 16.2223 44.6505 16.0776L49.7885 10.5771L44.6505 5.149Z" fill="#019CD5"/>
<path d="M73.3804 9.49152L65.5647 9.56389V13.4721H70.7752V17.1632H65.5647V20.4925C66.9397 20.4925 72.6567 20.4925 73.3804 20.4925V24.1836H61.874V5.80042H73.3804V9.49152Z" fill="#019CD5"/>
<path d="M74.8278 16.0776C74.8278 14.1235 75.4791 12.6036 76.7818 11.518C78.0844 10.4324 79.6764 9.92578 81.4856 9.92578C83.2948 9.92578 84.8869 10.4324 86.1895 11.518C87.4921 12.6036 88.1434 14.1235 88.1434 16.0776V24.2559H84.2356V16.0776C84.2356 15.2815 83.9461 14.7025 83.4395 14.2683C82.933 13.834 82.2093 13.6169 81.4132 13.6169C80.6896 13.6169 80.0383 13.834 79.4593 14.2683C78.8804 14.7025 78.5909 15.2815 78.5909 16.0776V24.2559H74.6831V16.0776H74.8278Z" fill="#019CD5"/>
<path d="M113.254 9.92578V13.6169C112.096 13.6169 111.228 13.834 110.721 14.2683C110.215 14.7025 109.925 15.3539 109.925 16.15V24.1836H106.018V16.2224C106.018 14.1235 106.597 12.6036 107.682 11.518C108.768 10.5048 110.649 9.92578 113.254 9.92578Z" fill="#019CD5"/>
<path d="M125.123 17.0185C124.978 16.2224 124.616 15.4986 123.892 14.992C123.241 14.4854 122.445 14.1959 121.577 14.1959C120.564 14.1959 119.767 14.5577 119.189 15.2091C118.61 15.9329 118.32 16.729 118.32 17.5975C118.32 18.466 118.61 19.2621 119.189 19.9135C119.767 20.5648 120.564 20.8543 121.649 20.8543C122.3 20.8543 122.807 20.782 123.241 20.7096C123.675 20.6372 124.037 20.4201 124.471 20.1306V24.0388C123.965 24.2559 123.531 24.4007 123.096 24.4731C122.662 24.5454 122.228 24.6178 121.721 24.6178C119.333 24.6178 117.524 23.8941 116.221 22.4466C114.919 20.9991 114.268 19.2621 114.268 17.2356C114.268 15.2091 114.919 13.4721 116.221 12.0246C117.524 10.5771 119.406 9.85339 121.721 9.85339C123.82 9.85339 125.629 10.5048 127.221 11.8075C128.813 13.1102 129.537 14.8472 129.537 16.8737V25.5587C129.537 27.8023 128.958 29.3945 127.873 30.4078C126.787 31.421 124.906 31.8553 122.3 31.8553V27.947C123.458 27.947 124.254 27.7299 124.688 27.368C125.05 27.0062 125.267 26.3548 125.267 25.4863V17.0185H125.123Z" fill="#019CD5"/>
<path d="M140.681 24.1111C139.958 24.4006 139.089 24.6178 138.076 24.6178C136.267 24.6178 134.675 24.1111 133.3 23.1703C131.925 22.157 131.201 20.6372 131.201 18.5383V10.2876H135.109V18.4659C135.109 19.262 135.398 19.841 135.905 20.2753C136.484 20.7095 137.135 20.9267 137.859 20.9267C138.655 20.9267 139.306 20.7095 139.813 20.2753C140.392 19.841 140.609 19.262 140.609 18.4659V10.2876H144.517L144.444 25.7034C144.444 27.947 143.865 29.5392 142.78 30.5525C141.694 31.5657 139.813 32 137.208 32V28.0917C138.438 28.0917 139.379 27.947 139.885 27.5851C140.392 27.2233 140.681 26.5719 140.681 25.7034V24.1111Z" fill="#019CD5"/>
<path d="M158.701 16.4395L160.799 8.76774C161.161 7.32025 161.523 6.37938 161.957 5.94513C162.391 5.51089 162.97 5.29376 163.694 5.29376C164.707 5.29376 165.431 5.58326 165.793 6.16226C166.154 6.74125 166.516 7.60975 166.806 8.76774L170.931 24.3283H166.878L163.766 12.8207L160.655 24.3283H156.747L153.635 12.8207L150.523 24.3283H146.543L150.668 8.76774C151.03 7.32025 151.392 6.37938 151.826 5.94513C152.26 5.51089 152.839 5.29376 153.563 5.29376C154.72 5.29376 155.444 5.65564 155.806 6.37938C156.095 7.10313 156.385 7.89925 156.602 8.76774L158.701 16.4395Z" fill="#019CD5"/>
<path d="M194.885 9.92578V13.6169C193.727 13.6169 192.858 13.834 192.352 14.2683C191.845 14.7025 191.556 15.3539 191.556 16.15V24.1836H187.648V16.2224C187.648 14.1235 188.227 12.6036 189.312 11.518C190.47 10.5048 192.279 9.92578 194.885 9.92578Z" fill="#019CD5"/>
<path d="M196.332 7.32031H200.24V14.4854L204.003 9.9258H209.069L202.917 17.3804L208.707 24.3283H203.641L200.312 20.2754V24.3283H196.404V7.32031H196.332Z" fill="#019CD5"/>
<path d="M100.662 18.1764C100.301 19.7687 98.8532 20.999 97.1164 20.999C96.4651 20.999 95.8138 20.8543 95.3072 20.4924L99.7216 17.9593L100.807 17.3803L104.281 15.3538C103.919 14.1235 103.268 13.0378 102.399 12.1693C101.024 10.7942 99.215 9.99811 97.1164 9.99811C92.9915 9.99811 89.6626 13.3273 89.6626 17.4527C89.6626 21.578 92.9915 24.9073 97.1164 24.9073C100.445 24.9073 103.195 22.736 104.208 19.7687C104.281 19.6239 104.281 19.4792 104.353 19.3344L100.662 18.1764ZM93.498 17.2356C93.5704 15.2815 95.1625 13.6892 97.1164 13.6892C97.7677 13.6892 98.3466 13.834 98.8532 14.1235L94.6559 16.5842L93.498 17.2356Z" fill="#019CD5"/>
<path d="M219.2 18.1041C218.838 19.6964 217.391 20.9267 215.654 20.9267C215.003 20.9267 214.351 20.782 213.845 20.4201L218.259 17.887L219.345 17.308L222.818 15.2815C222.456 14.0511 221.805 12.9655 220.937 12.097C219.562 10.7219 217.753 9.92578 215.654 9.92578C211.529 9.92578 208.2 13.255 208.2 17.3804C208.2 21.5057 211.529 24.8349 215.654 24.8349C218.983 24.8349 221.733 22.6637 222.746 19.6964C222.818 19.5516 222.818 19.4069 222.891 19.2621L219.2 18.1041ZM212.036 17.1632C212.108 15.2091 213.7 13.6169 215.654 13.6169C216.305 13.6169 216.884 13.7616 217.391 14.0511L213.194 16.5119L212.036 17.1632Z" fill="#019CD5"/>
<path d="M242.357 17.0909H239.607V13.3997H242.791C243.66 13.3997 244.311 13.1826 244.818 12.8208C245.324 12.4589 245.541 11.9523 245.541 11.518C245.541 11.0114 245.324 10.5048 244.818 10.1429C244.311 9.78102 243.66 9.56389 242.719 9.56389H238.232V24.3283H234.542V5.80042H242.43C244.745 5.80042 246.554 6.37941 247.857 7.46503C249.16 8.55065 249.811 9.85339 249.811 11.3733C249.811 12.8931 249.16 14.2682 247.857 15.3539C246.554 16.5119 244.673 17.0909 242.357 17.0909Z" fill="#8DAF00"/>
<path d="M257.555 9.92578V13.6169C256.397 13.6169 255.528 13.834 255.022 14.2683C254.515 14.7025 254.226 15.3539 254.226 16.15V24.1836H250.318V16.2224C250.318 14.1235 250.897 12.6036 251.982 11.518C253.068 10.5048 254.949 9.92578 257.555 9.92578Z" fill="#8DAF00"/>
<path d="M232.298 20.5648V24.2559C229.693 24.2559 227.884 23.7493 226.726 22.6637C225.568 21.578 225.062 20.0582 225.062 17.9593V11.1561H222.891V7.24788H225.062V4.6424H228.969V7.24788H231.068V11.2285H228.969V18.0317C228.969 18.9002 229.259 19.4792 229.765 19.9134C230.2 20.3477 231.068 20.5648 232.298 20.5648Z" fill="#019CD5"/>
<path d="M259.146 9.99811H263.056V24.3283H259.146V9.99811Z" fill="#8DAF00"/>
<path d="M275.14 19.045H279.337C279.048 20.2753 278.324 21.5781 277.166 22.8808C276.008 24.1836 274.344 24.8349 272.1 24.8349C269.857 24.8349 268.048 24.0388 266.673 22.5189C265.226 20.9991 264.574 19.2621 264.574 17.308C264.574 15.3539 265.298 13.6169 266.673 12.097C268.12 10.5771 269.857 9.85339 272.1 9.85339C273.186 9.85339 274.199 10.0705 275.067 10.4324C276.008 10.7943 276.732 11.3733 277.383 12.0246C277.962 12.676 278.396 13.255 278.686 13.7616C278.975 14.2682 279.192 14.8472 279.337 15.4986H275.14L274.706 14.7749C274.416 14.413 274.054 14.1235 273.548 13.9064C273.041 13.6892 272.607 13.6169 272.1 13.6169C270.943 13.6169 270.074 13.9787 269.35 14.7025C268.699 15.4262 268.337 16.2947 268.337 17.2356C268.337 18.1765 268.554 18.9726 269.061 19.4792C269.568 20.0582 270.074 20.4201 270.581 20.6372C271.087 20.8543 271.594 20.9267 272.173 20.9267C272.752 20.9267 273.186 20.8543 273.62 20.6372C274.054 20.4201 274.416 20.203 274.633 19.7687C274.923 19.5516 275.067 19.2621 275.14 19.045Z" fill="#8DAF00"/>
<path d="M291.712 18.1764C291.35 19.7687 289.903 20.999 288.166 20.999C287.514 20.999 286.863 20.8543 286.357 20.4924L290.771 17.9593L291.856 17.3803L295.33 15.3538C294.968 14.1235 294.317 13.0378 293.449 12.1693C292.074 10.7942 290.264 9.99811 288.166 9.99811C284.041 9.99811 280.712 13.3273 280.712 17.4527C280.712 21.578 284.041 24.9073 288.166 24.9073C291.495 24.9073 294.245 22.736 295.258 19.7687C295.33 19.6239 295.33 19.4792 295.402 19.3344L291.712 18.1764ZM284.475 17.2356C284.547 15.2815 286.139 13.6892 288.093 13.6892C288.745 13.6892 289.324 13.834 289.83 14.1235L285.633 16.5842L284.475 17.2356Z" fill="#8DAF00"/>
<path d="M182.365 10.0705V10.7943C181.28 10.2153 180.049 9.85339 178.747 9.85339C174.622 9.85339 171.293 13.1826 171.293 17.308C171.293 21.4333 174.622 24.7626 178.747 24.7626C180.049 24.7626 181.28 24.4007 182.365 23.8217V24.4007H186.201V10.0705H182.365ZM178.674 20.9267C176.648 20.9267 174.984 19.2621 174.984 17.2356C174.984 15.2091 176.648 13.5445 178.674 13.5445C180.628 13.5445 182.22 15.1367 182.293 17.0909V17.3804C182.293 19.4068 180.628 20.9267 178.674 20.9267Z" fill="#019CD5"/>
<path d="M261.101 8.26115C262.341 8.26115 263.346 7.25665 263.346 6.01754C263.346 4.77843 262.341 3.77393 261.101 3.77393C259.862 3.77393 258.857 4.77843 258.857 6.01754C258.857 7.25665 259.862 8.26115 261.101 8.26115Z" fill="#8DAF00"/>
<path d="M308.357 9.99811H307.198V23.6769H308.357V9.99811Z" fill="#CDD2D3"/>
<path d="M345.48 15.7157C345.046 15.2815 344.54 14.8472 344.033 14.4854C343.526 14.0511 343.02 13.6892 342.441 13.3274C341.934 12.9655 341.428 12.6036 340.994 12.3141C340.559 12.0246 340.198 11.7351 339.908 11.4456C339.619 11.1561 339.474 10.939 339.474 10.6495C339.474 10.2153 339.619 9.92577 339.836 9.63627C340.053 9.34677 340.415 9.2744 340.849 9.2744H346.132V5.80042H339.981C339.474 5.80042 338.895 5.87279 338.388 6.08991C337.882 6.30704 337.375 6.59654 336.941 6.95841C336.507 7.32028 336.145 7.8269 335.856 8.47827C335.566 9.12965 335.421 9.85339 335.421 10.6495C335.421 11.3009 335.566 11.8799 335.856 12.4589C336.145 13.0379 336.507 13.5445 336.941 14.0511C337.375 14.4854 337.882 14.9196 338.388 15.3539C338.895 15.7881 339.402 16.15 339.981 16.5119C340.487 16.8737 340.994 17.1632 341.428 17.5251C341.862 17.8146 342.224 18.1041 342.513 18.466C342.803 18.7555 342.948 19.045 342.948 19.3345C342.948 19.6963 342.803 20.0582 342.586 20.2753C342.369 20.4925 342.079 20.6372 341.717 20.6372H335.638V24.3283H341.79C342.586 24.3283 343.237 24.1836 343.888 23.9664C344.467 23.7493 344.974 23.4598 345.408 23.0979C345.842 22.7361 346.132 22.3018 346.349 21.7952C346.566 21.2886 346.783 20.782 346.855 20.2753C346.928 19.7687 347 19.2621 347 18.6831C347 18.1765 346.855 17.6698 346.566 17.0909C346.276 16.5842 345.915 16.15 345.48 15.7157Z" fill="url(#paint0_linear_6607_34)"/>
<path d="M333.757 11.8799C333.395 10.8666 332.888 9.99815 332.309 9.27441C331.731 8.55066 331.079 7.89929 330.283 7.39267C329.487 6.88605 328.763 6.4518 327.967 6.23468C327.171 5.94518 326.448 5.8728 325.724 5.8728H319.139V15.1368V24.4007H325.724C326.448 24.4007 327.244 24.2559 327.967 24.0388C328.763 23.7493 329.487 23.3875 330.283 22.8808C331.007 22.3742 331.731 21.7228 332.309 20.9991C332.888 20.2753 333.395 19.4069 333.757 18.3936C334.119 17.3804 334.263 16.3671 334.263 15.2815C334.263 13.9064 334.119 12.8931 333.757 11.8799ZM329.56 18.0317C329.053 18.9002 328.329 19.5516 327.461 19.9858C326.592 20.4201 325.652 20.6372 324.639 20.6372H322.974V15.0644V9.49153H324.639C325.652 9.49153 326.665 9.70866 327.461 10.1429C328.329 10.5772 328.981 11.2285 329.56 12.097C330.066 12.9655 330.356 13.9064 330.356 15.0644C330.356 16.15 330.066 17.1632 329.56 18.0317Z" fill="url(#paint1_linear_6607_34)"/>
<defs>
<linearGradient id="paint0_linear_6607_34" x1="321.642" y1="26.8945" x2="336.438" y2="17.8893" gradientUnits="userSpaceOnUse">
<stop stop-color="#009CEF"/>
<stop offset="1" stop-color="#00BEFF"/>
</linearGradient>
<linearGradient id="paint1_linear_6607_34" x1="316.86" y1="19.0388" x2="331.656" y2="10.0336" gradientUnits="userSpaceOnUse">
<stop stop-color="#009CEF"/>
<stop offset="1" stop-color="#00BEFF"/>
</linearGradient>
</defs>
</svg>
